<svg width="50" height="50" viewBox="0 0 50 50" fill="none" xmlns="http://www.w3.org/2000/svg">
<path d="M50 0H0V50H50V0Z" fill="#ADB0D9"/>
<path d="M37.3904 13.58C37.5804 12.88 38.0904 12.21 37.9604 11.5C37.8604 10.95 37.6304 10.38 37.7004 9.81003C37.7504 9.39003 38.3804 8.13003 38.9304 8.28003C39.1504 8.34003 39.2604 8.59003 39.3304 8.80003C39.7304 9.95003 40.0504 10.93 40.1804 12.16C40.3104 13.4 40.3404 14.65 40.2904 15.9C40.2604 16.67 40.1904 17.45 39.8804 18.15C39.6104 18.77 39.1504 19.31 38.5904 19.68C38.4304 19.33 38.0904 19.11 37.8404 18.82C37.4404 18.37 37.2504 17.78 37.1404 17.19C37.1404 15.94 37.0604 14.82 37.3904 13.58Z" fill="#444DF2"/>
<path d="M36.23 25C36.03 24.18 36.11 23.32 36.19 22.48C36.29 21.47 36.59 20.42 37.21 19.68C37.69 19.11 38.37 18.73 39.29 18.71C39.9 18.7 40.78 18.85 41.13 19.4C41.49 19.98 41.58 20.95 41.53 21.6C41.46 22.48 41.1 23.29 40.75 24.08C40.37 24.95 39.87 26.82 38.71 26.9C37.5 26.99 36.51 26.13 36.23 25Z" fill="#F5B18F"/>
<path d="M29.79 50H7.54004C7.62004 49.66 7.70004 49.32 7.78004 48.98C9.37004 42.16 9.99004 35.55 10.08 28.4C15.71 30.48 21.63 29.59 27.44 29.5C29.6 29.47 28.88 31.92 28.9 34.21C28.93 37.07 29.04 39.92 29.21 42.76C29.35 45.18 29.55 47.6 29.79 50Z" fill="#F5B18F"/>
<path d="M39.5902 16.2C39.3602 19.06 39.0102 21.92 38.8202 24.79C38.7402 26.06 38.6902 27.32 38.6902 28.59C38.7002 32.51 39.1702 36.76 37.0102 40.03C35.4202 42.43 32.6102 43.84 29.7502 44.21C27.6802 44.48 25.6102 44.23 23.5902 43.78C20.4402 43.09 17.2102 41.83 14.5402 39.88C12.9002 38.68 11.4802 37.22 10.4302 35.46C9.42017 33.78 8.82017 31.89 8.51017 29.94C8.35017 28.91 8.27017 27.86 8.26017 26.81C8.24017 24.86 8.44017 22.91 8.72017 20.98C9.12017 18.22 9.51017 15.3 11.0802 12.92C12.5502 10.7 14.7302 8.97001 17.1602 7.90001C21.2202 6.12001 25.8102 6.00001 30.2402 6.27001C31.8102 6.37001 33.3902 6.51001 34.8802 7.01001C36.3702 7.51001 37.7702 8.40001 38.6202 9.71001C39.8302 11.58 39.7702 13.98 39.5902 16.2Z" fill="#FEC29B"/>
<path d="M24.1273 26.0464C24.9264 25.9939 25.5024 24.8568 25.4138 23.5066C25.3251 22.1563 24.6055 21.1042 23.8063 21.1567C23.0072 21.2091 22.4312 22.3462 22.5199 23.6965C22.6085 25.0468 23.3281 26.0988 24.1273 26.0464Z" fill="#1B1464"/>
<path d="M33.5384 24.7362C34.3375 24.6837 34.9135 23.5466 34.8249 22.1964C34.7363 20.8461 34.0166 19.794 33.2175 19.8465C32.4183 19.8989 31.8424 21.0361 31.931 22.3863C32.0196 23.7366 32.7393 24.7887 33.5384 24.7362Z" fill="#1B1464"/>
<path d="M21.4418 19.072C21.9138 18.791 22.6668 18.528 23.4228 18.48C24.1828 18.432 24.8398 18.604 25.2568 19.054L26.0638 18.306C25.3318 17.516 24.2828 17.323 23.3528 17.382C22.4188 17.441 21.4968 17.759 20.8788 18.127L21.4418 19.072ZM25.2568 19.054C25.4638 19.277 25.8118 19.29 26.0338 19.083C26.2568 18.876 26.2698 18.528 26.0628 18.306L25.2568 19.054ZM20.8778 18.128C20.6168 18.284 20.5318 18.621 20.6868 18.882C20.8428 19.143 21.1798 19.228 21.4408 19.073L20.8778 18.128Z" fill="#1B1464"/>
<path d="M33.3201 17.88C33.5871 18.361 33.5861 18.361 33.5861 18.361C33.5861 18.361 33.5871 18.361 33.5881 18.36C33.5901 18.359 33.5951 18.356 33.6021 18.353C33.6151 18.346 33.6371 18.335 33.6661 18.321C33.7241 18.293 33.8111 18.254 33.9201 18.211C34.1411 18.124 34.4431 18.027 34.7781 17.978C35.4481 17.88 36.1721 17.978 36.7141 18.647L37.5681 17.954C36.6901 16.872 35.5041 16.761 34.6191 16.89C34.1771 16.955 33.7901 17.08 33.5171 17.188C33.3791 17.242 33.2671 17.293 33.1891 17.331C33.1491 17.35 33.1181 17.366 33.0961 17.378C33.0851 17.384 33.0761 17.389 33.0691 17.392C33.0661 17.394 33.0631 17.395 33.0611 17.397C33.0601 17.398 33.0591 17.398 33.0581 17.399C33.0581 17.399 33.0571 17.399 33.0571 17.4C33.0541 17.399 33.0531 17.399 33.3201 17.88ZM36.7131 18.647C36.9041 18.883 37.2511 18.919 37.4871 18.728C37.7231 18.537 37.7591 18.19 37.5681 17.954L36.7131 18.647ZM33.0531 17.399C32.7871 17.546 32.6911 17.881 32.8391 18.147C32.9861 18.413 33.3211 18.509 33.5871 18.361L33.0531 17.399Z" fill="#1B1464"/>
<path d="M23.4604 34.548C25.1604 36.173 27.6044 36.976 29.9354 36.696L29.8044 35.604C27.7954 35.845 25.6794 35.148 24.2194 33.752L23.4604 34.548ZM29.9354 36.696C30.2374 36.66 30.4524 36.386 30.4164 36.084C30.3804 35.782 30.1064 35.567 29.8044 35.603L29.9354 36.696ZM24.2204 33.752C24.0004 33.542 23.6524 33.55 23.4424 33.77C23.2324 33.99 23.2404 34.338 23.4604 34.548L24.2204 33.752Z" fill="#1B1464"/>
<path d="M39.4901 10.47C38.6601 12.96 34.8101 13.39 32.6101 13.63C29.2601 14 26.2801 13.25 23.0601 12.5C22.6401 12.4 17.2101 11.07 17.2101 11.07C16.9301 13.85 16.3001 16.31 14.6101 18.54C13.8801 19.5 14.5201 20.7 14.4101 21.96C14.2801 23.57 14.2301 25.53 13.7301 27.07C13.6701 27.27 13.4801 27.44 13.2701 27.41C12.9801 27.37 12.8901 27.02 12.7801 26.75C12.5301 26.12 11.8201 25.55 11.1201 25.85C10.4601 26.14 10.1301 27.17 9.79014 27.74C9.47014 28.28 8.97014 28.74 8.79014 29.34C8.73014 29.54 8.71014 29.75 8.62014 29.94C8.53014 30.13 8.35014 30.3 8.14014 30.3C7.99014 30.3 7.85014 30.2 7.74014 30.1C6.65014 29.16 6.47014 27.92 6.10014 26.64C5.68014 25.14 5.51014 23.59 5.36014 22.05C5.27014 21.05 5.19014 20.04 5.06014 19.04C4.95014 18.17 4.71014 17.31 4.70014 16.43C4.66014 13.59 5.25014 10.71 6.64014 8.25C8.46014 5.05 12.1701 3.36 15.5001 2.48C20.9801 1.04 26.4501 1.83 31.7801 3.53C33.9301 4.22 40.5101 7.44 39.4901 10.47Z" fill="#444DF2"/>
<path d="M31.4701 25.653C31.0301 25.253 30.7181 25.026 30.4851 24.719C30.2951 24.467 30.1891 24.19 30.2631 23.739L29.1771 23.561C29.0511 24.33 29.2501 24.908 29.6071 25.381C29.9221 25.798 30.3991 26.166 30.7301 26.467L31.4701 25.653ZM32.4201 27.817C32.4451 26.992 32.0681 26.19 31.4681 25.651L30.7331 26.469C31.1131 26.81 31.3351 27.308 31.3211 27.783L32.4201 27.817ZM27.1851 29.766C28.0711 30.279 29.2911 30.568 30.3421 30.359C30.8781 30.253 31.3951 30.011 31.7851 29.574C32.1791 29.133 32.3991 28.541 32.4191 27.815L31.3191 27.784C31.3041 28.298 31.1551 28.627 30.9631 28.842C30.7681 29.061 30.4861 29.209 30.1261 29.28C29.3871 29.427 28.4371 29.221 27.7331 28.813L27.1851 29.766ZM30.2631 23.739C30.3121 23.439 30.1091 23.156 29.8091 23.107C29.5091 23.058 29.2261 23.261 29.1771 23.561L30.2631 23.739ZM31.1001 26.06L30.7301 26.467C30.7311 26.468 30.7321 26.469 30.7331 26.469L31.1001 26.06ZM31.8701 27.8L31.3201 27.783V27.784L31.8701 27.8ZM27.7351 28.814C27.4721 28.662 27.1361 28.752 26.9831 29.015C26.8311 29.278 26.9211 29.614 27.1841 29.767L27.7351 28.814Z" fill="#1B1464"/>
<path d="M11.6102 20.19C10.9702 19.43 10.0802 18.93 8.86017 18.9C7.07017 18.86 5.35017 20.09 4.71017 21.76C3.67017 24.45 5.41017 27.74 7.76017 29.12C9.85017 30.35 12.3002 29.63 12.9102 27.2C13.1802 26.12 13.0702 24.98 12.9702 23.88C12.8302 22.55 12.4302 21.17 11.6102 20.19Z" fill="#FEC29B"/>
<path d="M10.4801 24.44C10.5531 23.895 10.5521 23.895 10.5521 23.895C10.5521 23.895 10.5521 23.895 10.5511 23.895H10.5501C10.5491 23.895 10.5481 23.895 10.5471 23.895C10.5441 23.895 10.5411 23.894 10.5371 23.894C10.5291 23.893 10.5181 23.892 10.5051 23.89C10.4781 23.887 10.4411 23.883 10.3941 23.88C10.3011 23.873 10.1711 23.865 10.0171 23.864C9.71206 23.862 9.29206 23.886 8.86706 23.996C8.44606 24.105 7.97307 24.311 7.62107 24.709C7.25407 25.123 7.07106 25.685 7.13206 26.388L8.22807 26.293C8.18907 25.846 8.30606 25.595 8.44506 25.438C8.59906 25.264 8.83906 25.139 9.14306 25.061C9.44306 24.983 9.76006 24.963 10.0121 24.964C10.1361 24.965 10.2381 24.971 10.3091 24.976C10.3441 24.979 10.3711 24.981 10.3881 24.983C10.3971 24.984 10.4031 24.985 10.4061 24.985C10.4081 24.985 10.4091 24.985 10.4091 24.985C10.4071 24.985 10.4071 24.985 10.4801 24.44ZM6.98006 22.34C7.06206 22.884 7.06206 22.884 7.06206 22.884C7.06206 22.884 7.06406 22.884 7.06606 22.883C7.07006 22.882 7.07706 22.882 7.08606 22.88C7.10506 22.878 7.13506 22.874 7.17506 22.87C7.25406 22.862 7.37006 22.854 7.51106 22.851C7.79506 22.845 8.16506 22.863 8.53006 22.949C8.89706 23.035 9.22806 23.183 9.47206 23.413C9.70406 23.633 9.89206 23.959 9.93306 24.48L11.0301 24.396C10.9701 23.618 10.6711 23.031 10.2281 22.613C9.79707 22.206 9.26506 21.991 8.78306 21.877C8.29806 21.763 7.83007 21.743 7.49007 21.75C7.31807 21.753 7.17506 21.764 7.07306 21.773C7.02206 21.778 6.98106 21.783 6.95206 21.786C6.93707 21.788 6.92606 21.789 6.91706 21.791C6.91306 21.792 6.90906 21.792 6.90606 21.792C6.90506 21.792 6.90307 21.792 6.90307 21.793H6.90207C6.90207 21.793 6.90206 21.793 6.90106 21.793C6.89806 21.796 6.89806 21.796 6.98006 22.34ZM7.13206 26.388C7.15806 26.691 7.42507 26.915 7.72807 26.888C8.03107 26.862 8.25507 26.595 8.22807 26.292L7.13206 26.388ZM10.4801 24.44L10.4071 24.985C10.5711 25.007 10.7371 24.953 10.8581 24.839C10.9791 24.725 11.0411 24.563 11.0281 24.397L10.4801 24.44ZM6.89806 21.796C6.59806 21.842 6.39106 22.122 6.43706 22.422C6.48306 22.722 6.76306 22.929 7.06306 22.883L6.89806 21.796Z" fill="#F4AC7D"/>
<path d="M28.6249 43.601C24.4829 43.786 19.5709 42.513 16.1449 40.223L15.5339 41.137C19.1679 43.567 24.3159 44.894 28.6739 44.699L28.6249 43.601ZM16.1459 40.223C15.8929 40.054 15.5519 40.122 15.3829 40.375C15.2139 40.628 15.2819 40.969 15.5349 41.138L16.1459 40.223ZM28.6749 44.699C28.9779 44.685 29.2129 44.428 29.1999 44.125C29.1869 43.822 28.9289 43.587 28.6259 43.6L28.6749 44.699Z" fill="#1B1464"/>
</svg>
