<svg width="50" height="50" viewBox="0 0 50 50" fill="none" xmlns="http://www.w3.org/2000/svg">
<g id="00c.Charaters">
<path id="Vector" d="M50 0H0V50H50V0Z" fill="#444DF2"/>
<path id="Vector_2" d="M39.9805 29.71C40.4605 30.81 41.2305 31.76 41.8205 32.8C42.4105 33.84 42.8105 35.09 42.4805 36.24C42.7705 36.31 43.0005 35.98 43.1105 35.7C43.7505 33.99 43.0605 31.2 42.4405 29.54C41.6505 27.41 39.9505 25.57 39.8605 23.3C39.1005 25.32 39.1005 27.72 39.9805 29.71Z" fill="#797EF3"/>
<path id="Vector_3" d="M38.7199 7.37C40.0799 9.01999 41.1399 11.04 41.0999 13.18C41.0799 13.93 40.9299 14.66 40.7799 15.39C40.4699 16.89 40.1599 18.38 39.8499 19.88C39.7699 20.25 39.6999 20.62 39.4999 20.94C39.0399 21.69 37.9899 21.93 37.1699 21.63C36.3499 21.33 35.7399 20.58 35.4199 19.77C34.9199 18.53 34.9799 17.11 35.3499 15.83C35.7199 14.54 36.3799 13.36 37.0599 12.21C37.5699 11.35 38.1099 10.48 38.9099 9.88L38.7199 7.37Z" fill="#797EF3"/>
<path id="Vector_4" d="M30.8896 50H20.1696C20.1596 50 20.1596 50 20.1496 50C18.3396 49.91 16.5096 49.97 14.6896 49.99C14.3296 49.99 13.9696 50 13.5996 50C13.6696 49.76 13.7396 49.53 13.7996 49.3C14.9396 45.35 15.4896 41.52 15.6896 37.47C15.7296 36.69 15.7496 35.9 15.7696 35.11C16.0396 35.19 16.3096 35.26 16.5896 35.33C16.6496 35.35 16.6996 35.36 16.7596 35.37C17.2196 35.48 17.6796 35.58 18.1496 35.65C22.2296 36.35 26.4396 35.91 30.5896 35.86C32.2296 35.84 31.4796 39.05 30.8296 41.56C30.8296 41.57 30.8196 41.58 30.8196 41.59C30.5296 42.68 30.2696 43.64 30.2296 44.14C30.0796 46.11 30.2296 48.15 30.8896 50Z" fill="#E8C5AA"/>
<path id="Vector_5" d="M34.55 8.79001C33.6 8.11001 32.46 7.68001 31.25 7.26001C25.87 5.39001 19.23 5.95001 15.04 10.13C13.44 11.72 12.29 13.74 11.68 15.92C11.02 18.27 11.36 20.35 11.51 22.72C11.74 26.48 12.33 30.46 14.77 33.33C18.9 38.19 25.4 41.24 31.73 41.65C33.7 41.78 35.89 41.52 37.59 40.46C38.61 39.82 39.45 38.84 39.85 37.69C40.12 36.91 40 36.02 40.14 35.2C40.41 33.58 40.97 32.03 41.17 30.4C41.38 28.68 41.34 26.94 41.19 25.22C41.1 24.16 41.07 23.07 40.79 22.04C40.51 21 39.98 20.07 39.66 19.03C39.02 16.94 38.42 14.65 37.43 12.7C36.73 11.33 35.81 9.68001 34.55 8.79001Z" fill="#F4D3B8"/>
<path id="Vector_6" d="M32.3833 23.4835C33.1633 23.3016 33.5464 22.0859 33.2391 20.7681C32.9318 19.4503 32.0505 18.5295 31.2706 18.7114C30.4906 18.8932 30.1075 20.1089 30.4148 21.4267C30.7221 22.7445 31.6034 23.6653 32.3833 23.4835Z" fill="#1B1464"/>
<path id="Vector_7" d="M38.2112 20.938C38.8242 20.795 39.1272 19.846 38.8882 18.819C38.6492 17.792 37.9572 17.075 37.3442 17.218C36.7312 17.361 36.4282 18.31 36.6682 19.337C36.9072 20.364 37.5982 21.081 38.2112 20.938Z" fill="#1B1464"/>
<path id="Vector_8" d="M39.5878 24.903C39.7388 25.084 39.7698 25.412 39.5528 25.967C39.3488 26.489 38.9978 27.017 38.7358 27.399L39.6438 28.02C39.9018 27.643 40.3218 27.021 40.5768 26.367C40.8198 25.747 40.9998 24.875 40.4318 24.196L39.5878 24.903ZM37.4798 24.055C37.8928 24.256 38.4288 24.371 38.7718 24.474C39.1678 24.592 39.4278 24.716 39.5938 24.909L40.4278 24.192C40.0438 23.745 39.5188 23.549 39.0868 23.42C38.6018 23.275 38.2678 23.215 37.9608 23.066L37.4798 24.055ZM35.1758 21.02C35.3758 22.386 36.3008 23.477 37.4778 24.054L37.9618 23.066C37.0588 22.623 36.4038 21.814 36.2638 20.86L35.1758 21.02ZM38.7358 27.399C38.5638 27.65 38.6288 27.992 38.8788 28.163C39.1288 28.334 39.4718 28.27 39.6428 28.02L38.7358 27.399ZM40.0098 24.55L40.4318 24.197C40.4298 24.195 40.4288 24.193 40.4268 24.192L40.0098 24.55ZM37.7198 23.56L37.4778 24.054C37.4788 24.054 37.4788 24.055 37.4798 24.055L37.7198 23.56ZM36.2638 20.86C36.2198 20.559 35.9408 20.352 35.6398 20.396C35.3388 20.44 35.1318 20.719 35.1758 21.02L36.2638 20.86Z" fill="#1B1464"/>
<path id="Vector_9" d="M33.0395 32.449C34.6655 32.331 36.6355 32.175 38.0645 30.971L37.3555 30.13C36.2445 31.066 34.6545 31.23 32.9605 31.352L33.0395 32.449ZM30.4005 32.377C31.3025 32.577 32.2235 32.508 33.0395 32.449L32.9605 31.352C32.1165 31.413 31.3575 31.463 30.6395 31.304L30.4005 32.377ZM37.6295 33.022C35.3775 33.952 32.5455 33.291 30.9305 31.475L30.1085 32.206C32.0335 34.37 35.3615 35.149 38.0495 34.039L37.6295 33.022ZM38.0635 30.971C38.2955 30.775 38.3255 30.428 38.1295 30.196C37.9335 29.964 37.5865 29.934 37.3545 30.13L38.0635 30.971ZM30.5195 31.84L30.6385 31.303C30.4055 31.251 30.1655 31.356 30.0445 31.561C29.9235 31.767 29.9495 32.027 30.1075 32.205L30.5195 31.84ZM38.0495 34.038C38.3305 33.922 38.4635 33.6 38.3475 33.32C38.2315 33.039 37.9095 32.906 37.6295 33.022L38.0495 34.038Z" fill="#1B1464"/>
<path id="Vector_10" d="M28.7215 16.7C27.8085 17.118 26.9215 17.843 26.5025 18.849L27.5175 19.272C27.7985 18.597 28.4315 18.042 29.1785 17.701L28.7215 16.7ZM32.2985 16.261C31.0275 16.007 29.9205 16.155 28.7235 16.7L29.1785 17.701C30.1805 17.245 31.0535 17.134 32.0835 17.34L32.2985 16.261ZM26.5025 18.848C26.3855 19.128 26.5185 19.45 26.7985 19.567C27.0785 19.684 27.4005 19.551 27.5175 19.271L26.5025 18.848ZM28.9505 17.2L28.7225 16.699C28.7225 16.699 28.7215 16.699 28.7215 16.7L28.9505 17.2ZM32.0825 17.339C32.3805 17.399 32.6705 17.205 32.7295 16.908C32.7895 16.61 32.5955 16.32 32.2985 16.261L32.0825 17.339Z" fill="#1B1464"/>
<path id="Vector_11" d="M36.0898 15.26C36.2498 15.786 36.2498 15.786 36.2488 15.786C36.2488 15.786 36.2488 15.786 36.2498 15.786C36.2508 15.786 36.2538 15.785 36.2568 15.784C36.2638 15.782 36.2768 15.778 36.2938 15.774C36.3278 15.765 36.3788 15.753 36.4448 15.739C36.5768 15.711 36.7628 15.68 36.9728 15.666C37.4108 15.636 37.8698 15.687 38.2028 15.902L38.7998 14.978C38.1718 14.573 37.4258 14.533 36.8998 14.569C36.6278 14.587 36.3898 14.627 36.2208 14.663C36.1358 14.681 36.0668 14.698 36.0168 14.71C35.9918 14.716 35.9728 14.722 35.9578 14.726C35.9508 14.728 35.9448 14.73 35.9408 14.731C35.9388 14.732 35.9368 14.732 35.9348 14.733C35.9338 14.733 35.9338 14.733 35.9328 14.734H35.9318C35.9298 14.734 35.9298 14.734 36.0898 15.26ZM38.2018 15.902C38.4568 16.067 38.7978 15.994 38.9618 15.738C39.1258 15.482 39.0538 15.142 38.7978 14.978L38.2018 15.902ZM35.9298 14.734C35.6388 14.822 35.4748 15.129 35.5628 15.42C35.6508 15.711 35.9578 15.875 36.2488 15.787L35.9298 14.734Z" fill="#1B1464"/>
<path id="Vector_12" d="M30.7802 11.42C30.9602 11.65 31.1502 11.88 31.3402 12.1C32.6802 13.65 34.4803 13.59 36.4003 13.79C37.8303 13.93 39.3602 14.31 40.2402 15.45C40.9602 16.39 41.0803 17.68 40.9003 18.85C40.8303 19.34 40.7103 19.82 40.6603 20.31C40.5003 21.88 41.0803 23.48 42.1003 24.67C43.1203 25.87 44.5702 26.67 46.0903 27.04C45.2903 26.32 44.4802 25.59 43.8802 24.68C43.2002 23.64 42.8302 22.41 42.8403 21.17C42.8503 19.9 43.2403 18.66 43.5003 17.42C44.0803 14.65 43.9003 11.75 43.1203 9.04002C42.4703 6.80002 41.3503 3.72002 39.2603 2.43002C37.5403 1.36002 35.6703 0.820019 33.6203 0.980019C31.8803 1.12002 30.1302 1.93002 29.1402 3.38002C27.4402 5.87002 29.1402 9.31002 30.7802 11.42Z" fill="#797EF3"/>
<path id="Vector_13" d="M30.2502 6.93998C30.1002 7.04998 29.9502 7.14998 29.8002 7.24998C29.6002 7.37998 29.4002 7.50998 29.2002 7.62998C29.0702 7.70998 28.9402 7.78998 28.8102 7.86998C26.8002 9.14998 24.7802 10.43 22.9502 11.96C21.7902 12.93 20.7102 13.98 19.6502 15.05C19.1702 15.53 18.5502 15.97 18.1202 16.48C17.7002 16.98 17.7102 17.51 17.6402 18.16C17.6302 18.26 17.6202 18.37 17.6002 18.47C17.2202 21.74 16.8402 25.01 16.4502 28.27C16.1702 30.63 16.4102 32.91 16.5702 35.19C16.5702 35.23 16.5802 35.27 16.5802 35.31C16.6602 36.57 16.7202 37.83 16.6502 39.12C16.6302 39.49 16.6002 39.86 16.5502 40.23C16.3902 41.61 16.2202 42.98 16.0602 44.36C15.8502 46.14 15.6302 47.96 14.8802 49.59C14.8202 49.72 14.7502 49.86 14.6802 49.99H5.20024C4.97024 49.79 4.76024 49.59 4.61024 49.35C4.02024 48.39 4.31024 46.65 4.67024 45.67C5.06024 44.64 5.74024 43.74 6.21024 42.75C6.68024 41.75 6.91024 40.53 6.38024 39.57C6.15024 39.15 5.80024 38.82 5.51024 38.44C4.22024 36.68 4.66024 34.23 5.29024 32.14C5.92024 30.05 6.69024 27.79 5.91024 25.75C5.54024 24.79 4.85024 23.98 4.42024 23.04C3.25024 20.46 4.25024 17.38 5.83024 15.03C6.48024 14.06 7.23024 13.14 7.65024 12.05C8.11024 10.86 8.14024 9.54998 8.33024 8.28998C8.52024 7.02998 8.94024 5.70998 9.95024 4.91998C10.7802 4.26998 11.8402 4.10998 12.8102 3.75998C13.8002 3.39998 14.6102 2.78998 15.5002 2.24998C17.5702 0.999983 19.9302 0.309983 22.3502 0.269983C24.1202 0.249983 25.8902 0.549983 27.5702 1.08998C28.6302 1.42998 29.2802 1.85998 29.9002 2.48998C30.2202 2.81998 30.5402 3.20998 30.9002 3.65998C31.1702 3.99998 31.4402 4.34998 31.5202 4.76998C31.6802 5.65998 31.0002 6.38998 30.2502 6.93998Z" fill="#797EF3"/>
<path id="Vector_14" d="M13.5203 20.19C12.8803 19.43 11.9903 18.93 10.7703 18.9C8.98033 18.86 7.26033 20.09 6.62033 21.76C5.58033 24.45 7.32033 27.74 9.67033 29.12C11.7603 30.35 14.2103 29.63 14.8203 27.2C15.0903 26.12 14.9803 24.98 14.8803 23.88C14.7403 22.55 14.3403 21.17 13.5203 20.19Z" fill="#F4D3B8"/>
<path id="Vector_15" d="M12.4 24.44C12.473 23.895 12.472 23.895 12.472 23.895C12.472 23.895 12.472 23.895 12.471 23.895H12.47C12.469 23.895 12.468 23.895 12.467 23.895C12.464 23.895 12.461 23.894 12.457 23.894C12.449 23.893 12.438 23.892 12.425 23.89C12.398 23.887 12.361 23.883 12.314 23.88C12.221 23.873 12.091 23.865 11.937 23.864C11.632 23.862 11.212 23.886 10.787 23.996C10.366 24.105 9.89298 24.311 9.54098 24.709C9.17398 25.123 8.99098 25.685 9.05198 26.388L10.148 26.293C10.109 25.846 10.226 25.595 10.365 25.438C10.519 25.264 10.759 25.139 11.063 25.061C11.363 24.983 11.68 24.963 11.932 24.964C12.056 24.965 12.158 24.971 12.229 24.976C12.264 24.979 12.291 24.981 12.308 24.983C12.317 24.984 12.323 24.985 12.326 24.985C12.328 24.985 12.329 24.985 12.329 24.985C12.327 24.985 12.327 24.985 12.4 24.44ZM8.89998 22.34C8.98198 22.884 8.98198 22.884 8.98198 22.884C8.98198 22.884 8.98398 22.884 8.98598 22.883C8.98998 22.882 8.99698 22.882 9.00598 22.88C9.02498 22.878 9.05498 22.874 9.09498 22.87C9.17398 22.862 9.28998 22.854 9.43098 22.851C9.71498 22.845 10.085 22.863 10.45 22.949C10.817 23.035 11.148 23.183 11.392 23.413C11.624 23.633 11.812 23.959 11.853 24.48L12.95 24.396C12.89 23.618 12.591 23.031 12.148 22.613C11.717 22.206 11.185 21.991 10.703 21.877C10.218 21.763 9.74998 21.743 9.40998 21.75C9.23798 21.753 9.09498 21.764 8.99298 21.773C8.94198 21.778 8.90098 21.783 8.87198 21.786C8.85698 21.788 8.84598 21.789 8.83698 21.791C8.83298 21.792 8.82898 21.792 8.82598 21.792C8.82498 21.792 8.82298 21.792 8.82298 21.793H8.82198C8.82198 21.793 8.82198 21.793 8.82098 21.793C8.81798 21.796 8.81798 21.796 8.89998 22.34ZM9.05198 26.388C9.07798 26.691 9.34498 26.915 9.64798 26.888C9.95098 26.862 10.175 26.595 10.148 26.292L9.05198 26.388ZM12.4 24.44L12.327 24.985C12.491 25.007 12.657 24.953 12.778 24.839C12.899 24.725 12.961 24.563 12.948 24.397L12.4 24.44ZM8.81798 21.796C8.51798 21.842 8.31098 22.122 8.35698 22.422C8.40298 22.722 8.68298 22.929 8.98298 22.883L8.81798 21.796Z" fill="#EABC97"/>
<path id="Vector_16" d="M14.83 13.69C15.44 11.98 16.46 10.36 17.5 8.89997C18.51 7.46997 19.88 6.29997 21.45 5.51997C22.92 4.79997 24.62 4.41997 26.2 4.83997C28.78 5.52997 30.35 8.74997 29.06 11.19C28.55 12.16 27.58 12.79 26.68 13.4C23.79 15.38 20.96 17.92 20.22 21.34C19.76 23.45 20.17 25.64 19.83 27.76C19.56 29.39 18.8 30.77 18.32 32.3C17.81 33.88 18.08 35.74 18.55 37.3C19.08 39.05 19.95 40.66 20.8 42.28C21.43 43.48 22.04 45 21.26 46.11C21.64 45.09 21.22 43.92 20.54 43.07C19.86 42.22 18.95 41.59 18.15 40.85C16.3 39.12 15.09 36.73 14.74 34.23C14.59 33.19 14.47 32.07 14.4 31.01C14.32 29.74 14.85 28.48 14.99 27.22C15.25 24.84 14.14 23.01 13.93 20.8C13.71 18.48 14.04 15.91 14.83 13.69Z" fill="#797EF3"/>
<path id="Vector_17" d="M30.3497 41.65C30.3497 41.1 30.3497 41.1 30.3497 41.1C30.3487 41.1 30.3477 41.1 30.3447 41.1C30.3397 41.1 30.3317 41.1 30.3197 41.1C30.2967 41.099 30.2607 41.098 30.2117 41.096C30.1147 41.092 29.9687 41.083 29.7777 41.064C29.3967 41.028 28.8397 40.954 28.1517 40.806C26.7747 40.51 24.8747 39.915 22.8027 38.723L22.2547 39.677C24.4417 40.935 26.4527 41.566 27.9207 41.882C28.6547 42.04 29.2547 42.12 29.6737 42.16C29.8837 42.18 30.0487 42.19 30.1627 42.195C30.2197 42.198 30.2647 42.199 30.2957 42.2C30.3117 42.2 30.3237 42.201 30.3327 42.201C30.3367 42.201 30.3407 42.201 30.3437 42.201C30.3447 42.201 30.3467 42.201 30.3467 42.201H30.3477C30.3497 42.2 30.3497 42.2 30.3497 41.65ZM22.8037 38.723C22.5407 38.572 22.2037 38.662 22.0527 38.926C21.9017 39.19 21.9917 39.526 22.2557 39.677L22.8037 38.723ZM30.3497 42.2C30.6537 42.2 30.8997 41.954 30.8997 41.65C30.8997 41.346 30.6537 41.1 30.3497 41.1V42.2Z" fill="#1B1464"/>
</g>
</svg>
