<svg width="50" height="50" viewBox="0 0 50 50" fill="none" xmlns="http://www.w3.org/2000/svg">
<path d="M50 0.00115967H0V50H50V0.00115967Z" fill="#444DF2"/>
<path d="M29.4151 41.5702C29.0681 44.3551 28.7351 47.185 28.6241 50H5.28711C5.59411 49.529 5.95811 49.031 6.36611 48.488C8.36911 45.8271 9.99211 42.8811 11.1791 39.7692C11.7721 38.2143 12.2571 36.6163 12.6241 34.9923C12.8801 33.8654 13.7341 31.4184 13.3511 30.3074C13.5701 30.9434 13.8791 31.5314 14.2581 32.0744C15.4571 33.7914 17.3581 35.0423 19.3341 35.8323C21.9351 36.8713 24.7411 37.2723 27.4331 38.0453C27.9961 38.2073 28.5821 38.4032 28.9751 38.8382C29.6131 39.5462 29.5331 40.6242 29.4151 41.5702Z" fill="#444DF2"/>
<path d="M29.4151 41.5702C29.0681 44.3551 28.7351 47.185 28.6241 50H5.28711C5.59411 49.529 5.95811 49.031 6.36611 48.488C8.36911 45.8271 9.99211 42.8811 11.1791 39.7692C11.7721 38.2143 12.2571 36.6163 12.6241 34.9923C12.8801 33.8654 13.7341 31.4184 13.3511 30.3074C13.5701 30.9434 13.8791 31.5314 14.2581 32.0744C15.4571 33.7914 17.3581 35.0423 19.3341 35.8323C21.9351 36.8713 24.7411 37.2723 27.4331 38.0453C27.9961 38.2073 28.5821 38.4032 28.9751 38.8382C29.6131 39.5462 29.5331 40.6242 29.4151 41.5702Z" fill="#EAAA7F"/>
<path d="M10.5868 18.2037C10.5548 16.0158 10.7868 13.7998 11.7978 11.8349C13.5318 8.46197 17.3358 6.37101 21.2008 5.63903C25.0668 4.90705 29.0418 5.33504 32.9348 5.79503C35.2738 6.07202 38.7618 6.49401 40.0168 8.63696C41.6758 11.4669 41.8368 15.5518 42.1668 18.7187C42.4968 21.8857 42.8998 25.0446 43.2158 28.2135C43.4928 30.9924 43.3858 33.9424 42.2618 36.5843C40.9188 39.7422 37.9788 42.3102 34.4928 43.1592C29.5338 44.3661 22.7618 42.7952 19.5708 39.0323C17.2278 36.2693 14.6018 33.2574 13.0508 30.0155C11.4558 26.6815 10.8068 22.9896 10.6248 19.3357C10.6058 18.9597 10.5918 18.5817 10.5868 18.2037Z" fill="#F7C9A4"/>
<path d="M14.151 31.7274C13.44 31.8074 12.742 31.7394 12.103 31.4074C11.321 31.0014 10.776 30.2625 10.275 29.5385C7.46798 25.4876 5.32298 20.6147 4.88098 15.6608C4.71198 13.7618 5.15498 11.7189 6.48898 10.3559C6.82898 10.0089 7.22298 9.70793 7.49298 9.30394C7.84898 8.77195 7.95498 8.11696 8.18298 7.51798C8.93398 5.54102 10.924 4.14506 12.842 3.25608C21.667 -0.833831 32.546 -1.44782 40.864 3.59507C41.57 4.02306 42.268 4.70204 42.756 5.36703C44.806 8.16196 42.807 12.0609 40.252 13.5968C36.617 15.7828 32.833 16.6868 28.59 16.1968C25.028 15.7848 21.61 14.5948 18.225 13.4118C19.548 16.6468 19.498 20.2997 18.276 23.5536C17.709 25.0646 17.849 25.8886 17.834 27.4635C17.825 28.3805 17.861 30.5394 16.782 30.9674C15.945 31.2994 15.038 31.6284 14.151 31.7274Z" fill="#1B1464"/>
<path d="M15.1376 22.0686C17.8176 23.9276 18.6436 28.5655 18.7116 31.6034C18.7146 31.7454 18.7166 31.8934 18.7796 32.0214C18.9826 32.4404 16.1216 32.5864 15.8896 32.5884C14.7606 32.5994 13.6306 32.4804 12.5286 32.2324C11.3326 31.9634 10.9686 31.6484 10.2576 30.6194C9.66057 29.7554 9.19357 28.7975 8.94157 27.7765C8.53257 26.1195 8.72557 24.2796 9.65857 22.8516C9.96757 22.3786 10.3586 21.9506 10.8406 21.6566C12.1406 20.8656 13.8866 21.2006 15.1376 22.0686Z" fill="#F7C9A4"/>
<path d="M17.2076 31.8044C14.9126 33.3654 12.0526 32.4434 11.2416 31.7564C10.0606 30.7555 9.3066 29.2625 8.9406 27.7775C8.5316 26.1206 8.72459 24.2806 9.65759 22.8526C9.96659 22.3797 10.3576 21.9517 10.8396 21.6577C12.1396 20.8657 13.8856 21.2017 15.1376 22.0687C16.5046 23.0166 17.4406 24.5616 17.6486 26.2126" fill="#F7C9A4"/>
<path d="M31.728 26.1909C32.4637 26.1426 32.9943 25.1 32.9131 23.8622C32.8318 22.6244 32.1695 21.6601 31.4338 21.7084C30.698 21.7567 30.1674 22.7993 30.2487 24.0371C30.3299 25.2749 30.9922 26.2392 31.728 26.1909Z" fill="#1B1464"/>
<path d="M39.5405 23.7927C40.2762 23.7444 40.8068 22.7019 40.7256 21.4641C40.6443 20.2263 39.982 19.262 39.2463 19.3103C38.5105 19.3586 37.9799 20.4011 38.0612 21.6389C38.1424 22.8767 38.8047 23.841 39.5405 23.7927Z" fill="#1B1464"/>
<path d="M36.5229 32.5994C35.4049 32.5994 34.2869 32.2685 33.5499 31.9935C33.2889 31.8955 33.1559 31.6055 33.2539 31.3435C33.3519 31.0825 33.6429 30.9495 33.9039 31.0475C34.7519 31.3645 36.8599 32.0125 38.1089 31.1865C38.2089 31.1205 38.2399 31.0845 38.2489 31.0715C38.2519 31.0235 38.2139 30.8965 38.1969 30.8405C37.8789 29.7835 37.4769 28.7325 37.0889 27.7166C36.4909 26.1516 35.8729 24.5326 35.5239 22.8187C35.4679 22.5457 35.6449 22.2787 35.9179 22.2227C36.1909 22.1667 36.4579 22.3437 36.5139 22.6167C36.8469 24.2496 37.4499 25.8286 38.0329 27.3566C38.4279 28.3895 38.8359 29.4585 39.1649 30.5495C39.2229 30.7405 39.3189 31.0595 39.2079 31.3915C39.1009 31.7125 38.8479 31.9085 38.6669 32.0285C38.0299 32.4485 37.2769 32.5994 36.5229 32.5994Z" fill="#1B1464"/>
<path d="M26.3795 23.7696C26.1355 23.7696 25.9205 23.5916 25.8815 23.3426C25.5425 21.1797 26.8825 18.8817 28.9325 18.1128C29.1935 18.0148 29.4845 18.1468 29.5825 18.4077C29.6805 18.6687 29.5485 18.9597 29.2875 19.0577C27.6695 19.6647 26.6115 21.4787 26.8795 23.1856C26.9225 23.4606 26.7345 23.7196 26.4585 23.7626C26.4315 23.7676 26.4055 23.7696 26.3795 23.7696Z" fill="#1B1464"/>
<path d="M40.9635 17.7548C40.7595 17.7548 40.5675 17.6298 40.4915 17.4278C40.3785 17.1268 40.1165 16.8758 39.7745 16.7388C39.4325 16.6018 39.0695 16.6028 38.7795 16.7408C38.5285 16.8618 38.2265 16.7548 38.1065 16.5038C37.9855 16.2528 38.0925 15.9508 38.3435 15.8298C38.8875 15.5688 39.5465 15.5588 40.1505 15.8008C40.7545 16.0428 41.2235 16.5058 41.4365 17.0708C41.5345 17.3318 41.4035 17.6228 41.1425 17.7218C41.0835 17.7438 41.0225 17.7548 40.9635 17.7548Z" fill="#1B1464"/>
<path d="M34.4718 37.8184C33.1948 37.8184 31.9168 37.4574 30.8658 36.7404C30.6358 36.5834 30.5758 36.2694 30.7338 36.0384C30.8908 35.8084 31.2048 35.7484 31.4358 35.9054C33.1358 37.0654 35.5458 37.1184 37.2958 36.0324C37.5328 35.8854 37.8438 35.9584 37.9908 36.1954C38.1378 36.4324 38.0648 36.7434 37.8278 36.8904C36.8298 37.5104 35.6508 37.8184 34.4718 37.8184Z" fill="#1B1464"/>
<path d="M28.7749 44.2951C28.7439 44.2951 28.7129 44.2921 28.6809 44.2861C24.8159 43.5591 20.9379 41.1982 17.7629 37.6383C17.5769 37.4303 17.5959 37.1113 17.8039 36.9253C18.0119 36.7393 18.3309 36.7583 18.5169 36.9663C21.5449 40.3602 25.2209 42.6082 28.8679 43.2931C29.1419 43.3451 29.3219 43.6081 29.2709 43.8821C29.2249 44.1261 29.0129 44.2951 28.7749 44.2951Z" fill="#1B1464"/>
<path d="M12.3878 29.1425C12.1288 29.1425 11.9078 28.9445 11.8858 28.6815C11.8118 27.8255 12.1458 27.3115 12.4398 27.0305C12.9748 26.5195 13.7558 26.3855 14.3228 26.3645C14.2378 26.1716 14.1138 26.0106 13.9488 25.8796C13.1888 25.2726 11.8338 25.4626 11.8208 25.4646C11.5458 25.5046 11.2888 25.3146 11.2478 25.0396C11.2068 24.7646 11.3958 24.5076 11.6708 24.4656C11.7438 24.4546 13.4678 24.2056 14.5758 25.0866C15.1068 25.5086 15.4058 26.1036 15.4628 26.8535C15.4748 27.0055 15.4168 27.1545 15.3068 27.2595C15.1958 27.3645 15.0438 27.4125 14.8928 27.3935C14.5568 27.3505 13.5848 27.3315 13.1368 27.7615C12.9398 27.9505 12.8598 28.2225 12.8928 28.5935C12.9168 28.8715 12.7118 29.1165 12.4338 29.1405C12.4178 29.1415 12.4028 29.1425 12.3878 29.1425Z" fill="#EAAA7F"/>
</svg>
