<svg width="50" height="50" viewBox="0 0 50 50" fill="none" xmlns="http://www.w3.org/2000/svg">
<g id="00c.Charaters">
<path id="Vector" d="M50 0H0V50H50V0Z" fill="#797EF3"/>
<path id="Vector_2" d="M38.5004 22.84C38.1904 22.06 38.1604 21.19 38.1304 20.35C38.1004 19.33 38.2604 18.25 38.7804 17.44C39.1804 16.81 39.8104 16.34 40.7204 16.2C41.3204 16.11 42.2204 16.15 42.6304 16.64C43.0704 17.16 43.2804 18.11 43.3104 18.77C43.3504 19.65 43.1004 20.5 42.8604 21.33C42.5904 22.24 42.3404 24.16 41.2104 24.39C40.0204 24.65 38.9204 23.92 38.5004 22.84Z" fill="#D9A48E"/>
<path id="Vector_3" d="M34.4297 50H12.1797C12.2597 49.66 12.3397 49.32 12.4197 48.98C14.0097 42.16 14.6297 35.55 14.7197 28.4C20.3497 30.48 26.2697 29.59 32.0797 29.5C34.2397 29.47 33.5197 31.92 33.5397 34.21C33.5697 37.07 33.6797 39.92 33.8497 42.76C33.9997 45.18 34.1897 47.6 34.4297 50Z" fill="#D9A48E"/>
<path id="Vector_4" d="M40.43 13.72C41 16.47 40.84 19.37 41.03 22.28C41.11 23.55 41.23 24.81 41.4 26.07C41.93 29.95 42.94 34.11 41.23 37.63C39.97 40.22 37.37 41.98 34.58 42.72C32.56 43.26 30.48 43.28 28.41 43.1C25.2 42.82 21.83 42.01 18.93 40.42C17.15 39.45 15.55 38.18 14.27 36.58C12.59 34.46 12.13 32.6 11.83 30.03C10.82 21.4 5.65001 11.57 15.18 5.61998C22.17 1.24998 33.79 2.16998 38.62 9.32998C39.58 10.73 40.12 12.2 40.43 13.72Z" fill="#E5B69E"/>
<path id="Vector_5" d="M26.525 25.4497C27.3103 25.293 27.7324 24.0903 27.4678 22.7633C27.2031 21.4363 26.3519 20.4876 25.5665 20.6442C24.7812 20.8009 24.3591 22.0036 24.6238 23.3306C24.8884 24.6576 25.7396 25.6063 26.525 25.4497Z" fill="#1B1464"/>
<path id="Vector_6" d="M35.6842 22.9086C36.4695 22.752 36.8916 21.5492 36.627 20.2223C36.3623 18.8953 35.5111 17.9465 34.7257 18.1032C33.9404 18.2598 33.5183 19.4625 33.7829 20.7895C34.0476 22.1165 34.8988 23.0652 35.6842 22.9086Z" fill="#1B1464"/>
<path id="Vector_7" d="M22.958 18.894C23.392 18.555 24.106 18.198 24.85 18.051C25.598 17.904 26.275 17.986 26.752 18.376L27.448 17.524C26.615 16.844 25.552 16.792 24.638 16.972C23.72 17.153 22.848 17.585 22.282 18.027L22.958 18.894ZM26.752 18.376C26.987 18.568 27.334 18.533 27.526 18.298C27.718 18.063 27.683 17.716 27.448 17.524L26.752 18.376ZM22.282 18.026C22.042 18.213 22 18.558 22.187 18.798C22.374 19.038 22.719 19.08 22.959 18.893L22.282 18.026Z" fill="#1B1464"/>
<path id="Vector_8" d="M32.0805 14.96C32.4065 15.403 32.4065 15.403 32.4065 15.403C32.4065 15.403 32.4074 15.402 32.4084 15.402C32.4104 15.4 32.4144 15.397 32.4214 15.393C32.4334 15.384 32.4535 15.371 32.4805 15.353C32.5345 15.318 32.6155 15.267 32.7185 15.21C32.9265 15.095 33.2135 14.959 33.5395 14.867C34.1915 14.683 34.9205 14.687 35.5425 15.278L36.3005 14.481C35.2915 13.522 34.1015 13.566 33.2405 13.809C32.8105 13.931 32.4434 14.105 32.1864 14.248C32.0564 14.32 31.9525 14.384 31.8795 14.432C31.8425 14.456 31.8135 14.476 31.7925 14.49C31.7825 14.497 31.7735 14.503 31.7675 14.508C31.7645 14.51 31.7614 14.512 31.7594 14.514C31.7584 14.515 31.7575 14.515 31.7565 14.516L31.7555 14.517C31.7545 14.517 31.7545 14.517 32.0805 14.96ZM35.5415 15.279C35.7615 15.488 36.1094 15.48 36.3194 15.259C36.5284 15.039 36.5205 14.691 36.2995 14.481L35.5415 15.279ZM31.7545 14.517C31.5105 14.697 31.4585 15.042 31.6385 15.286C31.8185 15.53 32.1634 15.582 32.4074 15.402L31.7545 14.517Z" fill="#1B1464"/>
<path id="Vector_9" d="M26.9859 33.9741C28.8889 35.3611 31.4079 35.8431 33.6879 35.2521L33.4119 34.1871C31.4519 34.6961 29.2709 34.2781 27.6339 33.0851L26.9859 33.9741ZM33.6879 35.2521C33.9819 35.1761 34.1589 34.8761 34.0819 34.5821C34.0059 34.2881 33.7059 34.1111 33.4119 34.1881L33.6879 35.2521ZM27.6339 33.0861C27.3889 32.9071 27.0439 32.9611 26.8659 33.2071C26.6879 33.4531 26.7409 33.7971 26.9869 33.9751L27.6339 33.0861Z" fill="#1B1464"/>
<path id="Vector_10" d="M32.519 21.749C32.417 21.255 32.448 20.741 32.489 20.138L31.3921 20.064C31.3531 20.641 31.3041 21.307 31.4421 21.973L32.519 21.749ZM34.1161 24.588C33.3361 23.779 32.742 22.839 32.519 21.75L31.4411 21.971C31.7181 23.321 32.445 24.441 33.324 25.353L34.1161 24.588ZM34.5671 28.116C35.0711 27.494 35.2131 26.83 35.0661 26.184C34.9271 25.573 34.5421 25.036 34.1181 24.591L33.321 25.349C33.687 25.733 33.9181 26.097 33.9931 26.428C34.0611 26.724 34.018 27.046 33.712 27.423L34.5671 28.116ZM30.149 28.748C30.784 29.012 31.598 29.177 32.386 29.128C33.172 29.079 34.0071 28.808 34.5671 28.117L33.713 27.424C33.414 27.793 32.9231 27.992 32.3171 28.03C31.7131 28.068 31.067 27.938 30.571 27.732L30.149 28.748ZM32.489 20.137C32.51 19.834 32.281 19.572 31.977 19.551C31.674 19.53 31.4121 19.759 31.391 20.063L32.489 20.137ZM31.9801 21.86L32.519 21.75V21.749L31.9801 21.86ZM33.72 24.97L34.1181 24.591C34.1171 24.59 34.116 24.589 34.115 24.588L33.72 24.97ZM30.571 27.732C30.291 27.615 29.969 27.748 29.852 28.029C29.735 28.309 29.868 28.631 30.149 28.748L30.571 27.732Z" fill="#1B1464"/>
<path id="Vector_11" d="M34.4901 34.9C34.4901 34.92 34.4801 34.94 34.4801 34.96C34.4201 35.35 34.2201 35.7 33.9701 36C33.1201 37.02 31.7101 37.49 30.4001 37.33C29.0901 37.17 27.8801 36.43 27.0101 35.43C26.5701 34.92 26.2101 34.33 26.1101 33.67C26.0701 33.4 26.0901 33.09 26.3001 32.92C26.3801 32.85 26.4801 32.81 26.5801 32.78C27.7801 32.39 29.0601 32.89 30.2801 33.2C31.0001 33.38 31.7401 33.5 32.4801 33.58C33.4601 33.69 34.6701 33.48 34.4901 34.9ZM41.0401 22.28C40.9101 22.62 40.8301 22.97 40.7601 23.32C40.4701 24.86 40.6101 26.47 40.1301 27.98C39.7001 29.33 38.5701 30.55 37.5001 31.44C37.2601 31.64 37.0001 31.84 36.7001 31.95C35.5901 32.36 34.5001 31.74 33.4101 31.72C32.6701 31.7 31.9301 31.8 31.1901 31.76C29.6001 31.67 28.0701 30.91 26.4701 30.98C24.9301 31.05 23.7101 32.07 22.2701 32.52C21.3201 32.82 20.2601 32.65 19.3801 32.18C18.6201 31.78 17.8101 31.14 17.4001 30.37C16.9301 29.48 16.8301 28.33 16.4801 27.38C16.2701 26.8 15.1301 24.38 14.8601 26.15C14.6901 27.24 14.6401 28.31 14.2401 29.36C14.0101 29.97 13.7001 30.55 13.5001 31.17C12.1301 35.47 15.4901 38.55 18.9201 40.43C21.8201 42.01 25.1901 42.83 28.4001 43.11C30.4601 43.29 32.5501 43.26 34.5701 42.73C37.3501 41.99 39.9601 40.22 41.2201 37.64C42.9301 34.12 41.9201 29.96 41.3901 26.08C41.2401 24.81 41.1201 23.55 41.0401 22.28Z" fill="#1B1464"/>
<path id="Vector_12" d="M13.4601 21.3C12.7301 20.63 11.7801 20.25 10.5601 20.39C8.78012 20.58 7.24012 22.03 6.82012 23.77C6.14012 26.57 8.30012 29.6 10.8101 30.67C13.0401 31.62 15.3801 30.59 15.6601 28.09C15.7901 26.98 15.5301 25.87 15.2801 24.79C14.9801 23.48 14.4001 22.15 13.4601 21.3Z" fill="#E5B69E"/>
<path id="Vector_13" d="M12.8897 25.65C12.8897 25.1 12.8897 25.1 12.8897 25.1C12.8897 25.1 12.8897 25.1 12.8887 25.1H12.8877C12.8867 25.1 12.8857 25.1 12.8847 25.1C12.8817 25.1 12.8787 25.1 12.8747 25.1C12.8667 25.1 12.8557 25.1 12.8427 25.101C12.8157 25.102 12.7777 25.103 12.7317 25.105C12.6387 25.11 12.5087 25.12 12.3557 25.139C12.0527 25.178 11.6387 25.256 11.2317 25.421C10.8277 25.584 10.3867 25.85 10.0887 26.291C9.77869 26.75 9.66968 27.33 9.82268 28.019L10.8967 27.78C10.7997 27.344 10.8827 27.081 10.9997 26.906C11.1297 26.714 11.3517 26.558 11.6437 26.44C11.9317 26.323 12.2437 26.261 12.4937 26.23C12.6167 26.214 12.7197 26.207 12.7897 26.203C12.8247 26.201 12.8517 26.2 12.8697 26.2C12.8787 26.2 12.8847 26.2 12.8877 26.2C12.8897 26.2 12.8907 26.2 12.8907 26.2C12.8897 26.2 12.8897 26.2 12.8897 25.65ZM9.14968 24.03C9.30268 24.558 9.30269 24.558 9.30269 24.558C9.30269 24.558 9.30468 24.558 9.30668 24.557C9.31068 24.556 9.31669 24.554 9.32669 24.552C9.34569 24.547 9.37469 24.54 9.41369 24.531C9.49169 24.513 9.60568 24.49 9.74468 24.468C10.0267 24.425 10.3947 24.394 10.7687 24.431C11.1447 24.468 11.4907 24.571 11.7617 24.767C12.0197 24.953 12.2467 25.251 12.3537 25.762L13.4307 25.538C13.2717 24.774 12.8997 24.232 12.4067 23.875C11.9267 23.528 11.3717 23.385 10.8777 23.336C10.3827 23.287 9.91569 23.329 9.57869 23.38C9.40869 23.406 9.26769 23.435 9.16769 23.458C9.11769 23.47 9.07768 23.48 9.04868 23.487C9.03468 23.491 9.02269 23.494 9.01469 23.496C9.01069 23.497 9.00669 23.498 9.00469 23.499C9.00369 23.499 9.00269 23.5 9.00169 23.5H9.00069C9.00069 23.5 9.00068 23.5 8.99968 23.5C8.99668 23.502 8.99668 23.502 9.14968 24.03ZM9.82268 28.019C9.88868 28.316 10.1827 28.502 10.4787 28.437C10.7747 28.372 10.9617 28.077 10.8967 27.781L9.82268 28.019ZM12.8897 25.65V26.2C13.0557 26.2 13.2117 26.125 13.3167 25.997C13.4207 25.869 13.4627 25.7 13.4287 25.538L12.8897 25.65ZM8.99668 23.502C8.70468 23.587 8.53668 23.892 8.62168 24.183C8.70668 24.475 9.01169 24.643 9.30269 24.558L8.99668 23.502Z" fill="#DB9F7F"/>
<path id="Vector_14" d="M12.1997 11.59C11.5597 11.59 11.5597 12.59 12.1997 12.59C12.8497 12.59 12.8497 11.59 12.1997 11.59Z" fill="#DB9F7F"/>
<path id="Vector_15" d="M13.0503 9.83002C12.4103 9.83002 12.4103 10.83 13.0503 10.83C13.6903 10.83 13.6903 9.83002 13.0503 9.83002Z" fill="#DB9F7F"/>
<path id="Vector_16" d="M14.0904 11.52C13.4504 11.52 13.4504 12.52 14.0904 12.52C14.7304 12.52 14.7304 11.52 14.0904 11.52Z" fill="#DB9F7F"/>
</g>
</svg>
